<svg width="20" height="20" viewBox="0 0 20 20" fill="none" xmlns="http://www.w3.org/2000/svg">
<path d="M10.0003 18.9584C5.05866 18.9584 1.04199 14.9417 1.04199 10.0001C1.04199 5.05841 5.05866 1.04175 10.0003 1.04175C14.942 1.04175 18.9587 5.05841 18.9587 10.0001C18.9587 14.9417 14.942 18.9584 10.0003 18.9584ZM10.0003 2.29175C5.75033 2.29175 2.29199 5.75008 2.29199 10.0001C2.29199 14.2501 5.75033 17.7084 10.0003 17.7084C14.2503 17.7084 17.7087 14.2501 17.7087 10.0001C17.7087 5.75008 14.2503 2.29175 10.0003 2.29175Z" fill="#292D32"/>
<path d="M12.917 10.625H7.91699C7.57533 10.625 7.29199 10.3417 7.29199 10C7.29199 9.65833 7.57533 9.375 7.91699 9.375H12.917C13.2587 9.375 13.542 9.65833 13.542 10C13.542 10.3417 13.2587 10.625 12.917 10.625Z" fill="#292D32"/>
<path d="M9.58288 13.1251C9.42454 13.1251 9.26621 13.0668 9.14121 12.9418L6.64121 10.4418C6.39954 10.2001 6.39954 9.80011 6.64121 9.55845L9.14121 7.05845C9.38288 6.81678 9.78288 6.81678 10.0245 7.05845C10.2662 7.30011 10.2662 7.70011 10.0245 7.94178L7.96621 10.0001L10.0245 12.0584C10.2662 12.3001 10.2662 12.7001 10.0245 12.9418C9.89954 13.0668 9.74121 13.1251 9.58288 13.1251Z" fill="#292D32"/>
</svg>
