<svg width="24" height="25" viewBox="0 0 24 25" fill="none" xmlns="http://www.w3.org/2000/svg">
<path d="M5.69362 12.7599L2.29933 4.03175C2.0631 3.42428 2.65544 2.84335 3.2414 3.04984L3.33375 3.0891L21.3337 12.0891C21.852 12.3482 21.8844 13.0577 21.4309 13.3732L21.3337 13.4307L3.33375 22.4307C2.75077 22.7222 2.11746 22.1862 2.2688 21.5837L2.29933 21.4881L5.69362 12.7599L2.29933 4.03175L5.69362 12.7599ZM4.4021 5.30033L7.01109 12.0093L13.6387 12.0099C14.0184 12.0099 14.3322 12.2921 14.3818 12.6581L14.3887 12.7599C14.3887 13.1396 14.1065 13.4534 13.7404 13.5031L13.6387 13.5099L7.01109 13.5093L4.4021 20.2195L19.3213 12.7599L4.4021 5.30033Z" fill="#171939"/>
</svg>
