<svg width="67" height="41" viewBox="0 0 67 41" fill="none" xmlns="http://www.w3.org/2000/svg">
<path id="Vector" d="M20.9092 9.94306C20.9358 9.94306 20.9668 9.94306 20.9979 9.94306C25.2689 9.94306 29.1362 11.3635 31.9436 13.6621C34.3098 15.4915 36.4807 17.394 38.7604 19.2982C39.1529 19.6104 39.3968 20.0486 39.3968 20.5343C39.3968 20.7734 39.3369 21.0035 39.2283 21.2098L39.2327 21.1988C38.9333 21.8506 38.2104 22.3144 37.3478 22.3673H37.3411C37.2591 22.3765 37.166 22.3819 37.0706 22.3819C36.4852 22.3819 35.9574 22.1738 35.5915 21.8433L35.5893 21.8415C33.4161 20.0523 31.2473 18.2886 29.1052 16.4793C27.4664 15.0844 25.3043 14.1149 22.8806 13.7808L22.814 13.7735C22.2197 13.6859 21.5367 13.6347 20.8404 13.6347C14.4096 13.6347 9.19613 17.9271 9.19613 23.2218C9.19613 27.7515 13.0125 31.549 18.1439 32.5496L18.2237 32.5623C19.1906 32.7212 20.3016 32.8106 21.4392 32.8106C21.7674 32.8106 22.0933 32.8033 22.4171 32.7887L22.3728 32.7906C22.3971 32.7887 22.4238 32.7887 22.4526 32.7887C22.7741 32.7887 23.0624 32.9038 23.2598 33.0863C24.5992 34.1654 26.0162 35.2425 27.4088 36.3161C27.4908 36.3855 27.6017 36.453 27.686 36.5206C27.5197 36.5206 27.4088 36.5425 27.2979 36.5425H20.9247C13.2409 36.5407 6.81006 32.126 5.16908 26.2105L5.14913 26.1211C4.89633 25.2429 4.74997 24.2351 4.74997 23.198C4.74997 17.31 9.44228 12.3238 15.9153 10.6368L16.0284 10.6113C17.4809 10.2188 19.1529 9.97593 20.8892 9.94124H20.9114L20.9092 9.94306ZM41.9847 3.86695C42.0379 3.86695 42.1022 3.86695 42.1643 3.86695C48.0629 3.86695 53.3496 6.03047 56.9131 9.44828L56.9353 9.47019C59.9467 12.3257 61.7806 16.0794 61.7806 20.1855C61.7806 20.9469 61.7185 21.6954 61.5966 22.4294L61.6077 22.3436C60.4435 29.1956 54.2831 34.64 46.2978 36.1372L46.1647 36.1591C44.8653 36.4037 43.3728 36.5443 41.8405 36.5443C40.8626 36.5443 39.9024 36.4877 38.9622 36.3763L39.0708 36.3873C35.9153 36.0842 33.0835 35.144 30.6974 33.7253L30.7506 33.7546C30.0587 33.3456 29.4511 32.9165 28.8901 32.4491L28.8879 32.4473C25.4906 29.6977 22.1266 26.9262 18.7293 24.1766C18.2792 23.8517 17.9975 23.377 17.9975 22.8475C17.9975 22.5554 18.084 22.2779 18.237 22.035L18.2304 22.0442C18.5985 21.3924 19.3879 20.9487 20.3016 20.9487C20.4147 20.9487 20.5255 20.956 20.6342 20.9688L20.6209 20.967C21.2041 21.0437 21.7053 21.2847 22.0645 21.6297L22.0667 21.6334C25.1292 24.1748 28.1627 26.6725 31.2229 29.2176C33.4494 31.0871 36.4098 32.3579 39.7206 32.7157L39.7937 32.723C40.5122 32.8252 41.3416 32.8837 42.1865 32.8837C46.677 32.8837 50.6996 31.2368 53.4116 28.637L53.4272 28.6205C55.3076 26.8842 56.6182 24.697 57.0905 22.2797L57.1016 22.2085C57.2524 21.5603 57.3389 20.8136 57.3389 20.0504C57.3389 17.1657 56.1037 14.5202 54.0459 12.4498L54.0658 12.4717C51.234 9.48297 46.8566 7.57871 41.9403 7.57871C38.8579 7.57871 35.9862 8.32727 33.5824 9.61625L33.6423 9.58704C33.5824 9.61625 33.5092 9.63268 33.4316 9.63268C33.3762 9.63268 33.3252 9.62355 33.2764 9.60895C32.1477 8.91334 30.8726 8.26519 29.5287 7.71381L29.3824 7.65904C29.3602 7.63896 29.3425 7.61705 29.327 7.59149V7.58966C30.3404 6.8904 31.4824 6.26599 32.702 5.75113L32.8063 5.71096C34.9218 4.74696 37.4121 4.10612 40.0576 3.92537L40.1242 3.92172C40.7421 3.88277 41.3608 3.86451 41.9802 3.86695H41.9847ZM40.9624 0.00365125C40.3215 0.0492951 39.654 0.0949397 39.0154 0.162493C36.1015 0.436356 33.4471 1.10823 31.0345 2.11605L31.1675 2.06493C28.5331 3.1403 26.2823 4.49683 24.3552 6.11628L24.3508 6.11993C24.2754 6.19296 24.1623 6.24043 24.0381 6.24043C24.0115 6.24043 23.9849 6.2386 23.9583 6.23313H23.9605C23.0469 6.11628 21.9913 6.05055 20.9158 6.05055C12.0168 6.05055 4.41512 10.6222 1.38596 17.069L1.33718 17.1858C0.643086 18.6227 0.186273 20.2841 0.0598734 22.0223L0.0576561 22.0661C0.0554385 22.172 0.0354806 22.2742 0 22.371L0.00221764 22.3637V24.1274C0.0576561 24.5856 0.141923 25.022 0.195144 25.4802C0.490076 27.4575 1.17751 29.2522 2.19536 30.8863L2.14436 30.795C4.36412 34.4812 8.02306 37.3495 12.5025 38.9525L12.6355 38.9945C14.6247 39.7357 16.9376 40.2214 19.368 40.3455L19.4234 40.3474C19.5077 40.3474 19.5897 40.3565 19.6696 40.3711L19.6629 40.3693H43.4283C43.9361 40.3309 44.4306 40.2889 44.9451 40.2323C47.8368 39.9585 50.4712 39.2866 52.8661 38.2788L52.7353 38.3281C56.9508 36.6082 60.3814 34.0339 62.7785 30.8753L62.8384 30.7895C64.4284 28.7721 65.5793 26.3949 66.1004 23.8425L66.1181 23.733C66.2556 22.957 66.3399 22.1537 66.453 21.3741C66.4552 21.2682 66.4752 21.166 66.5107 21.0692L66.5084 21.0765V19.2654C66.453 18.7414 66.3709 18.2338 66.3709 17.7555C66.0383 15.3729 65.2223 13.2039 63.9982 11.232L64.0581 11.3398C61.9403 7.87265 58.798 5.05186 54.9506 3.07457L54.8464 3.02528C52.4115 1.73264 49.5443 0.792378 46.4685 0.359674L46.3333 0.343242C45.3309 0.206311 44.3574 0.138757 43.3551 0.0474697C43.2154 0.0438182 43.0824 0.0273863 42.9537 0L42.967 0.00182562L40.9624 0.00365125Z" fill="#2196F3"/>
</svg>
